<svg xmlns="http://www.w3.org/2000/svg" version="1.1" xmlns:xlink="http://www.w3.org/1999/xlink" xmlns:svgjs="http://svgjs.dev/svgjs" width="1500" height="386" viewBox="0 0 1500 386"><g transform="matrix(1,0,0,1,-1.8351063829786654,-1.5499690721648847)"><svg viewBox="0 0 376 97" data-background-color="#ffffff" preserveAspectRatio="xMidYMid meet" height="386" width="1500" xmlns="http://www.w3.org/2000/svg" xmlns:xlink="http://www.w3.org/1999/xlink"><g id="tight-bounds" transform="matrix(1,0,0,1,0.46023999999999887,0.38974999999999227)"><svg viewBox="0 0 375.07953 96.22054000000003" height="96.22054000000003" width="375.07953"><g><svg></svg></g><g><svg viewBox="0 0 375.07953 96.22054000000003" height="96.22054000000003" width="375.07953"><g transform="matrix(1,0,0,1,-10.22024,-78.03025)"><path d="M10.22 169.17v-91.14h375.08v91.14l-31.444 0 0-3.045h28.399v-85.05h-368.99v85.05h28.399l0 3.045z" fill="#a3c0c4" fill-rule="nonzero" stroke="none" stroke-width="1" stroke-linecap="butt" stroke-linejoin="miter" stroke-miterlimit="10" stroke-dasharray="" stroke-dashoffset="0" font-family="none" font-weight="none" font-size="none" text-anchor="none" style="mix-blend-mode: normal" data-fill-palette-color="tertiary"></path><g><path d="M54.505 161.649v0c0.699 0 1.45 0.121 2.253 0.363v0l-0.351 0.991c-0.767-0.221-1.43-0.332-1.991-0.332v0c-0.629 0-1.161 0.132-1.597 0.397-0.437 0.267-0.656 0.611-0.656 1.032v0c0 0.233 0.071 0.442 0.212 0.625 0.141 0.183 0.326 0.332 0.554 0.447 0.23 0.115 0.492 0.228 0.787 0.34 0.293 0.113 0.592 0.217 0.896 0.311 0.303 0.092 0.602 0.211 0.896 0.355 0.293 0.145 0.554 0.303 0.784 0.476 0.23 0.172 0.415 0.397 0.555 0.674 0.141 0.277 0.212 0.59 0.211 0.938v0c0 0.242-0.038 0.483-0.115 0.724-0.077 0.24-0.204 0.478-0.381 0.714-0.179 0.237-0.401 0.444-0.664 0.621-0.265 0.179-0.598 0.324-0.998 0.434-0.402 0.112-0.85 0.167-1.344 0.168-0.495 0-0.95-0.051-1.364-0.155-0.415-0.101-0.879-0.254-1.393-0.46v0l0.371-1.05c1.063 0.395 1.903 0.593 2.52 0.593v0c0.646 0 1.173-0.13 1.578-0.389 0.406-0.26 0.609-0.606 0.609-1.04v0c0-0.289-0.09-0.539-0.269-0.75-0.181-0.211-0.416-0.381-0.703-0.51-0.287-0.131-0.605-0.253-0.954-0.366-0.348-0.112-0.696-0.233-1.043-0.363-0.347-0.129-0.664-0.279-0.951-0.45-0.287-0.169-0.522-0.398-0.703-0.687-0.179-0.291-0.269-0.632-0.269-1.022v0c0-0.348 0.084-0.682 0.251-1.001 0.169-0.321 0.402-0.6 0.7-0.839 0.296-0.24 0.668-0.432 1.116-0.575 0.446-0.143 0.93-0.214 1.453-0.214zM61.849 164.375v0c0.873 0 1.591 0.278 2.153 0.834 0.564 0.558 0.847 1.328 0.847 2.31v0c0 1.042-0.288 1.87-0.865 2.485-0.577 0.615-1.322 0.923-2.237 0.923v0c-0.871 0-1.583-0.288-2.135-0.865-0.554-0.577-0.831-1.358-0.832-2.345v0c0-1.017 0.282-1.829 0.847-2.435 0.563-0.605 1.303-0.907 2.222-0.907zM61.76 165.266v0c-0.523 0-0.98 0.202-1.372 0.606-0.39 0.404-0.585 0.959-0.586 1.665v0c0 0.702 0.191 1.294 0.573 1.775 0.383 0.481 0.879 0.721 1.487 0.721v0c0.563 0 1.031-0.213 1.403-0.638 0.375-0.425 0.562-0.98 0.562-1.665v0c0-0.392-0.06-0.747-0.18-1.066-0.122-0.319-0.281-0.578-0.479-0.779-0.199-0.2-0.419-0.354-0.661-0.46-0.242-0.106-0.491-0.159-0.747-0.159zM66.955 170.799v-9.641h1.045v9.641zM74.591 169.497v-5.002h1.046v6.304h-0.732l-0.225-0.531c-0.803 0.439-1.545 0.659-2.226 0.659v0c-0.345 0-0.645-0.054-0.899-0.162-0.256-0.11-0.454-0.245-0.594-0.406-0.141-0.162-0.254-0.368-0.339-0.616-0.084-0.249-0.138-0.486-0.162-0.711-0.023-0.226-0.034-0.484-0.034-0.774v0-3.763h1.045v3.842c0 1.101 0.478 1.652 1.435 1.651v0c0.495 0 1.057-0.164 1.685-0.491zM81.12 172.879v0c0-0.064-0.009-0.123-0.027-0.175-0.017-0.054-0.053-0.102-0.107-0.144-0.052-0.044-0.101-0.08-0.146-0.11-0.044-0.03-0.118-0.064-0.222-0.102-0.105-0.038-0.191-0.068-0.259-0.089-0.068-0.021-0.179-0.054-0.334-0.099-0.155-0.044-0.278-0.08-0.369-0.11v0l0.301-1.123c-0.246-0.038-0.476-0.099-0.69-0.183-0.213-0.082-0.422-0.204-0.63-0.366-0.209-0.162-0.387-0.355-0.533-0.578-0.146-0.223-0.265-0.503-0.356-0.839-0.089-0.336-0.133-0.711-0.133-1.123v0c0-0.497 0.06-0.944 0.18-1.344 0.118-0.397 0.276-0.722 0.473-0.974 0.199-0.254 0.432-0.465 0.701-0.633 0.268-0.167 0.543-0.287 0.823-0.358 0.281-0.07 0.574-0.105 0.881-0.105v0c0.603 0 1.192 0.125 1.766 0.377v0l-0.256 0.766c-0.472-0.162-0.934-0.243-1.385-0.243v0c-0.221 0-0.429 0.02-0.624 0.06-0.195 0.042-0.389 0.116-0.583 0.222-0.193 0.106-0.36 0.243-0.499 0.41-0.138 0.169-0.249 0.389-0.335 0.661-0.085 0.272-0.128 0.585-0.128 0.938v0c0 0.387 0.045 0.728 0.136 1.025 0.089 0.294 0.206 0.533 0.35 0.716 0.145 0.183 0.318 0.332 0.52 0.447 0.202 0.115 0.406 0.195 0.612 0.24 0.207 0.044 0.429 0.065 0.666 0.066v0c0.401 0 0.801-0.07 1.2-0.209v0l0.256 0.721c-0.549 0.207-1.085 0.321-1.607 0.342v0l-0.181 0.703c0.009 0.003 0.043 0.014 0.102 0.032 0.061 0.017 0.106 0.03 0.136 0.039 0.03 0.009 0.078 0.025 0.146 0.049 0.068 0.026 0.121 0.05 0.16 0.071 0.038 0.021 0.09 0.05 0.154 0.086 0.063 0.037 0.113 0.074 0.152 0.113 0.038 0.038 0.08 0.085 0.125 0.141 0.044 0.054 0.079 0.11 0.107 0.167 0.028 0.057 0.051 0.125 0.068 0.201 0.017 0.077 0.026 0.158 0.026 0.243v0c0 0.301-0.118 0.571-0.353 0.81-0.233 0.239-0.55 0.358-0.948 0.358v0c-0.091 0-0.187-0.008-0.29-0.023-0.105-0.014-0.217-0.036-0.337-0.065-0.118-0.03-0.216-0.056-0.293-0.079-0.077-0.021-0.179-0.051-0.306-0.089-0.127-0.038-0.204-0.062-0.23-0.07v0l0.165-0.58c0.669 0.2 1.107 0.301 1.314 0.3v0c0.197 0 0.353-0.048 0.468-0.144 0.115-0.096 0.172-0.212 0.173-0.347zM88.704 161.56v0l0.69 0.107c-0.009 0.035-0.026 0.121-0.053 0.259-0.024 0.139-0.043 0.234-0.055 0.285-0.014 0.051-0.036 0.139-0.065 0.267-0.03 0.129-0.059 0.22-0.089 0.274-0.03 0.056-0.068 0.132-0.115 0.23-0.047 0.098-0.098 0.17-0.154 0.217-0.054 0.047-0.118 0.098-0.193 0.154-0.075 0.056-0.16 0.094-0.256 0.115-0.096 0.021-0.199 0.031-0.309 0.031v0c-0.188 0-0.37-0.039-0.546-0.117-0.176-0.078-0.329-0.174-0.46-0.288-0.129-0.113-0.251-0.226-0.366-0.337-0.115-0.113-0.229-0.209-0.342-0.287-0.112-0.078-0.217-0.118-0.316-0.118v0c-0.051 0-0.098 0.006-0.142 0.018-0.045 0.012-0.085 0.035-0.12 0.068-0.033 0.031-0.064 0.062-0.091 0.092-0.028 0.03-0.053 0.072-0.076 0.128-0.024 0.056-0.044 0.104-0.058 0.144-0.016 0.04-0.03 0.096-0.044 0.167-0.016 0.073-0.028 0.131-0.037 0.172-0.009 0.044-0.02 0.105-0.033 0.183-0.016 0.078-0.028 0.137-0.037 0.175v0l-0.687-0.096c0.009-0.033 0.025-0.118 0.049-0.256 0.026-0.139 0.045-0.234 0.058-0.285 0.012-0.051 0.034-0.14 0.065-0.269 0.03-0.127 0.059-0.219 0.089-0.275 0.03-0.054 0.068-0.131 0.115-0.23 0.047-0.098 0.098-0.17 0.151-0.217 0.056-0.045 0.121-0.096 0.196-0.151 0.073-0.056 0.158-0.094 0.254-0.115 0.096-0.021 0.199-0.031 0.311-0.032v0c0.186 0 0.368 0.039 0.546 0.118 0.176 0.078 0.328 0.174 0.458 0.287 0.131 0.112 0.254 0.224 0.368 0.337 0.115 0.113 0.228 0.209 0.34 0.288 0.113 0.078 0.219 0.118 0.316 0.118v0c0.059 0 0.113-0.01 0.162-0.032 0.051-0.021 0.092-0.045 0.125-0.073 0.035-0.028 0.068-0.071 0.1-0.128 0.031-0.057 0.056-0.107 0.073-0.149 0.017-0.044 0.037-0.105 0.057-0.186 0.021-0.08 0.036-0.143 0.045-0.188 0.009-0.045 0.022-0.116 0.039-0.211 0.016-0.096 0.028-0.16 0.037-0.194zM86.981 165.266v0c-0.523 0-0.98 0.202-1.372 0.606-0.39 0.404-0.585 0.959-0.585 1.665v0c0 0.702 0.191 1.294 0.572 1.775 0.383 0.481 0.879 0.721 1.487 0.721v0c0.561 0 1.029-0.213 1.404-0.638 0.375-0.425 0.562-0.98 0.562-1.665v0c0-0.392-0.06-0.747-0.181-1.066-0.122-0.319-0.282-0.578-0.481-0.779-0.197-0.2-0.416-0.354-0.658-0.46-0.242-0.106-0.491-0.159-0.748-0.159zM87.07 164.375v0c0.873 0 1.591 0.278 2.154 0.834 0.564 0.558 0.847 1.328 0.846 2.31v0c0 1.042-0.288 1.87-0.865 2.485-0.577 0.615-1.322 0.923-2.237 0.923v0c-0.871 0-1.584-0.288-2.137-0.865-0.552-0.577-0.828-1.358-0.829-2.345v0c0-1.017 0.282-1.829 0.847-2.435 0.563-0.605 1.303-0.907 2.221-0.907zM94.759 164.375v0c0.307 0 0.582 0.037 0.826 0.11 0.246 0.075 0.45 0.17 0.611 0.284 0.16 0.115 0.299 0.265 0.416 0.45 0.118 0.185 0.208 0.363 0.269 0.536 0.061 0.172 0.109 0.38 0.144 0.622 0.033 0.242 0.054 0.453 0.062 0.632 0.009 0.178 0.013 0.389 0.013 0.633v0 0.496h-4.33c0 0.23 0.051 0.458 0.154 0.685 0.105 0.228 0.252 0.437 0.442 0.627 0.188 0.188 0.436 0.342 0.745 0.463 0.308 0.118 0.65 0.178 1.024 0.177v0c0.443 0 0.922-0.077 1.438-0.23v0l0.182 0.716c-0.685 0.233-1.356 0.35-2.014 0.351v0c-0.463 0-0.875-0.062-1.237-0.186-0.359-0.124-0.648-0.284-0.867-0.481-0.218-0.199-0.397-0.436-0.539-0.713-0.139-0.275-0.236-0.551-0.29-0.826-0.052-0.274-0.078-0.564-0.078-0.87v0c0-0.472 0.057-0.904 0.17-1.297 0.115-0.39 0.271-0.719 0.468-0.985 0.195-0.265 0.423-0.489 0.684-0.671 0.261-0.183 0.536-0.316 0.824-0.4 0.287-0.082 0.582-0.123 0.883-0.123zM94.537 165.279v0c-0.375 0-0.697 0.104-0.967 0.311-0.27 0.206-0.467 0.462-0.591 0.768-0.124 0.307-0.186 0.636-0.185 0.988v0h3.292c0-1.378-0.517-2.067-1.549-2.067zM101.695 164.375v0c0.089 0 0.172 0.001 0.251 0.002 0.08 0.002 0.157 0.007 0.23 0.016 0.075 0.009 0.139 0.015 0.193 0.018 0.052 0.005 0.113 0.014 0.183 0.027 0.071 0.012 0.123 0.022 0.154 0.028 0.031 0.007 0.085 0.02 0.16 0.04 0.075 0.019 0.121 0.03 0.138 0.033 0.016 0.003 0.065 0.018 0.149 0.045 0.084 0.026 0.132 0.041 0.144 0.044v0l-0.269 0.797c-0.57-0.157-1.071-0.235-1.506-0.235v0c-0.251 0-0.473 0.025-0.666 0.076-0.193 0.052-0.342 0.114-0.447 0.186-0.105 0.073-0.19 0.158-0.256 0.253-0.064 0.094-0.106 0.178-0.126 0.251-0.019 0.071-0.029 0.142-0.028 0.212v0c0 0.174 0.09 0.329 0.269 0.465 0.181 0.136 0.407 0.247 0.677 0.332 0.27 0.085 0.563 0.186 0.878 0.303 0.315 0.117 0.608 0.24 0.878 0.368 0.27 0.131 0.495 0.313 0.674 0.547 0.181 0.233 0.272 0.504 0.272 0.81v0c0 0.174-0.023 0.343-0.068 0.507-0.044 0.164-0.128 0.335-0.253 0.515-0.125 0.178-0.287 0.332-0.487 0.462-0.197 0.129-0.462 0.236-0.794 0.322-0.331 0.085-0.712 0.128-1.142 0.128v0c-0.65 0-1.364-0.159-2.143-0.479v0l0.293-0.791c0.439 0.162 0.798 0.277 1.076 0.344 0.279 0.068 0.551 0.102 0.818 0.102v0c1.038 0 1.558-0.33 1.558-0.99v0c0-0.145-0.051-0.272-0.152-0.382-0.103-0.11-0.24-0.2-0.41-0.271-0.169-0.07-0.362-0.142-0.578-0.217-0.214-0.075-0.433-0.144-0.655-0.207-0.223-0.064-0.443-0.149-0.659-0.253-0.214-0.103-0.407-0.217-0.578-0.343-0.169-0.125-0.305-0.288-0.407-0.488-0.101-0.2-0.152-0.426-0.152-0.677v0c0-0.153 0.024-0.309 0.073-0.468 0.049-0.16 0.14-0.328 0.275-0.504 0.134-0.178 0.301-0.333 0.499-0.466 0.2-0.134 0.468-0.245 0.802-0.331 0.333-0.087 0.71-0.131 1.132-0.131zM110.029 170.799v-9.066h1.084v9.066zM113.792 170.799v-6.304h0.734l0.23 0.536c0.812-0.443 1.551-0.664 2.219-0.664v0c0.345 0 0.645 0.054 0.899 0.162 0.256 0.11 0.454 0.247 0.593 0.41 0.141 0.164 0.254 0.369 0.338 0.617 0.082 0.249 0.135 0.487 0.159 0.714 0.023 0.225 0.034 0.482 0.034 0.77v0 3.759h-1.045v-3.829c0-1.106-0.477-1.659-1.43-1.66v0c-0.493 0-1.055 0.164-1.686 0.492v0 4.997zM124.499 169.975l0.146 0.714c-0.617 0.159-1.098 0.238-1.442 0.238-0.345 0-0.636-0.056-0.873-0.168-0.239-0.11-0.42-0.267-0.544-0.47-0.124-0.206-0.212-0.426-0.264-0.661-0.054-0.235-0.081-0.506-0.081-0.813v0-3.497h-0.849v-0.823h0.849v-1.806h1.048v1.806h1.919v0.823h-1.919v3.484c0 0.871 0.344 1.307 1.033 1.307v0c0.124 0 0.45-0.044 0.977-0.134zM128.952 164.375v0c0.307 0 0.582 0.037 0.826 0.11 0.244 0.075 0.447 0.17 0.609 0.284 0.162 0.115 0.301 0.265 0.418 0.45 0.117 0.185 0.206 0.363 0.267 0.536 0.063 0.172 0.111 0.38 0.144 0.622 0.035 0.242 0.057 0.453 0.065 0.632 0.009 0.178 0.013 0.389 0.013 0.633v0 0.496h-4.333c0 0.23 0.052 0.458 0.157 0.685 0.105 0.228 0.251 0.437 0.439 0.627 0.19 0.188 0.439 0.342 0.747 0.463 0.308 0.118 0.65 0.178 1.025 0.177v0c0.443 0 0.921-0.077 1.434-0.23v0l0.186 0.716c-0.685 0.233-1.357 0.35-2.018 0.351v0c-0.463 0-0.875-0.062-1.233-0.186-0.359-0.124-0.648-0.284-0.868-0.481-0.22-0.199-0.399-0.436-0.538-0.713-0.141-0.275-0.238-0.551-0.29-0.826-0.054-0.274-0.081-0.564-0.081-0.87v0c0-0.472 0.057-0.904 0.172-1.297 0.115-0.39 0.27-0.719 0.465-0.985 0.197-0.265 0.426-0.489 0.688-0.671 0.261-0.183 0.536-0.316 0.823-0.4 0.286-0.082 0.58-0.123 0.883-0.123zM128.728 165.279v0c-0.375 0-0.697 0.104-0.967 0.311-0.27 0.206-0.466 0.462-0.588 0.768-0.124 0.307-0.186 0.636-0.186 0.988v0h3.293c0-1.378-0.517-2.067-1.552-2.067zM133.398 170.799v-9.641h1.048v9.641zM136.774 162.937v-1.204h1.239v1.204zM136.871 170.799v-6.304h1.045v6.304zM142.808 164.367v0c0.504 0 1.085 0.168 1.744 0.504v0l0.133-0.376h0.734v6.698c0 0.129-0.004 0.253-0.013 0.371-0.009 0.118-0.034 0.287-0.076 0.505-0.044 0.216-0.104 0.414-0.18 0.593-0.075 0.178-0.191 0.37-0.348 0.577-0.155 0.206-0.338 0.379-0.548 0.52-0.209 0.139-0.481 0.256-0.816 0.351-0.335 0.094-0.708 0.141-1.121 0.141v0c-0.65 0-1.301-0.136-1.952-0.408v0l0.295-0.76c0.523 0.195 1.031 0.293 1.524 0.292v0c1.46 0 2.19-0.806 2.19-2.417v0-0.465c-0.549 0.289-1.105 0.434-1.667 0.434v0c-0.272 0-0.537-0.035-0.798-0.105-0.26-0.071-0.514-0.189-0.763-0.353-0.247-0.164-0.464-0.368-0.65-0.611-0.185-0.244-0.333-0.555-0.445-0.933-0.113-0.376-0.17-0.796-0.17-1.26v0c0-0.488 0.068-0.929 0.204-1.322 0.136-0.394 0.308-0.71 0.518-0.949 0.207-0.239 0.446-0.438 0.716-0.598 0.27-0.162 0.529-0.274 0.776-0.338 0.247-0.061 0.485-0.091 0.713-0.091zM142.874 165.216v0c-0.591 0-1.067 0.213-1.43 0.638-0.362 0.425-0.544 0.989-0.543 1.691v0c0 0.467 0.075 0.888 0.224 1.262 0.148 0.375 0.384 0.678 0.709 0.91 0.322 0.232 0.712 0.348 1.168 0.347v0c0.463 0 0.921-0.121 1.372-0.363v0-4.129c-0.584-0.237-1.084-0.355-1.5-0.356zM150.426 164.375v0c0.307 0 0.583 0.037 0.829 0.11 0.244 0.075 0.447 0.17 0.609 0.284 0.162 0.115 0.301 0.265 0.418 0.45 0.117 0.185 0.206 0.363 0.267 0.536 0.063 0.172 0.111 0.38 0.143 0.622 0.035 0.242 0.057 0.453 0.066 0.632 0.007 0.178 0.01 0.389 0.01 0.633v0 0.496h-4.33c0 0.23 0.052 0.458 0.156 0.685 0.103 0.228 0.249 0.437 0.44 0.627 0.19 0.188 0.439 0.342 0.747 0.463 0.308 0.118 0.65 0.178 1.024 0.177v0c0.441 0 0.919-0.077 1.435-0.23v0l0.186 0.716c-0.685 0.233-1.357 0.35-2.018 0.351v0c-0.463 0-0.875-0.062-1.233-0.186-0.361-0.124-0.65-0.284-0.868-0.481-0.22-0.199-0.4-0.436-0.541-0.713-0.139-0.275-0.236-0.551-0.29-0.826-0.052-0.274-0.078-0.564-0.078-0.87v0c0-0.472 0.057-0.904 0.172-1.297 0.115-0.39 0.27-0.719 0.465-0.985 0.195-0.265 0.423-0.489 0.685-0.671 0.263-0.183 0.537-0.316 0.823-0.4 0.287-0.082 0.582-0.123 0.883-0.123zM150.204 165.279v0c-0.375 0-0.697 0.104-0.967 0.311-0.27 0.206-0.467 0.462-0.59 0.768-0.122 0.307-0.183 0.636-0.183 0.988v0h3.29c0-1.378-0.517-2.067-1.55-2.067zM154.746 170.799v-6.304h0.735l0.23 0.536c0.812-0.443 1.552-0.664 2.221-0.664v0c0.343 0 0.643 0.054 0.899 0.162 0.254 0.11 0.452 0.247 0.593 0.41 0.139 0.164 0.251 0.369 0.335 0.617 0.084 0.249 0.137 0.487 0.159 0.714 0.024 0.225 0.037 0.482 0.037 0.77v0 3.759h-1.048v-3.829c0-1.106-0.477-1.659-1.43-1.66v0c-0.493 0-1.054 0.164-1.683 0.492v0 4.997zM165.453 169.975l0.147 0.714c-0.617 0.159-1.098 0.238-1.443 0.238-0.343 0-0.634-0.056-0.873-0.168-0.239-0.11-0.42-0.267-0.543-0.47-0.122-0.206-0.21-0.426-0.264-0.661-0.052-0.235-0.078-0.506-0.079-0.813v0-3.497h-0.849v-0.823h0.849v-1.806h1.046v1.806h1.921v0.823h-1.921v3.484c0 0.871 0.344 1.307 1.032 1.307v0c0.124 0 0.45-0.044 0.977-0.134zM169.907 164.375v0c0.307 0 0.582 0.037 0.825 0.11 0.246 0.075 0.449 0.17 0.609 0.284 0.162 0.115 0.301 0.265 0.418 0.45 0.117 0.185 0.206 0.363 0.27 0.536 0.061 0.172 0.109 0.38 0.143 0.622 0.033 0.242 0.054 0.453 0.063 0.632 0.009 0.178 0.013 0.389 0.013 0.633v0 0.496h-4.333c0 0.23 0.052 0.458 0.157 0.685 0.105 0.228 0.252 0.437 0.442 0.627 0.188 0.188 0.436 0.342 0.744 0.463 0.308 0.118 0.65 0.178 1.025 0.177v0c0.443 0 0.921-0.077 1.435-0.23v0l0.185 0.716c-0.685 0.233-1.356 0.35-2.015 0.351v0c-0.463 0-0.875-0.062-1.236-0.186-0.359-0.124-0.648-0.284-0.867-0.481-0.218-0.199-0.397-0.436-0.539-0.713-0.141-0.275-0.238-0.551-0.29-0.826-0.054-0.274-0.081-0.564-0.081-0.87v0c0-0.472 0.057-0.904 0.173-1.297 0.115-0.39 0.271-0.719 0.467-0.985 0.195-0.265 0.423-0.489 0.685-0.671 0.261-0.183 0.536-0.316 0.823-0.4 0.287-0.082 0.582-0.123 0.884-0.123zM169.684 165.279v0c-0.375 0-0.697 0.104-0.966 0.311-0.27 0.206-0.467 0.462-0.591 0.768-0.124 0.307-0.186 0.636-0.186 0.988v0h3.293c0-1.378-0.517-2.067-1.55-2.067zM176.843 164.375v0c0.089 0 0.172 0.001 0.25 0.002 0.08 0.002 0.157 0.007 0.23 0.016 0.075 0.009 0.139 0.015 0.191 0.018 0.054 0.005 0.116 0.014 0.186 0.027 0.071 0.012 0.123 0.022 0.154 0.028 0.031 0.007 0.085 0.02 0.159 0.04 0.075 0.019 0.12 0.03 0.136 0.033 0.017 0.003 0.068 0.018 0.152 0.045 0.082 0.026 0.13 0.041 0.144 0.044v0l-0.27 0.797c-0.57-0.157-1.071-0.235-1.505-0.235v0c-0.251 0-0.473 0.025-0.666 0.076-0.193 0.052-0.342 0.114-0.447 0.186-0.105 0.073-0.19 0.158-0.256 0.253-0.066 0.094-0.109 0.178-0.128 0.251-0.017 0.071-0.026 0.142-0.027 0.212v0c0 0.174 0.09 0.329 0.27 0.465 0.181 0.136 0.407 0.247 0.676 0.332 0.27 0.085 0.563 0.186 0.879 0.303 0.314 0.117 0.605 0.24 0.875 0.368 0.27 0.131 0.496 0.313 0.677 0.547 0.181 0.233 0.272 0.504 0.272 0.81v0c0 0.174-0.023 0.343-0.068 0.507-0.044 0.164-0.128 0.335-0.254 0.515-0.125 0.178-0.287 0.332-0.486 0.462-0.197 0.129-0.462 0.236-0.794 0.322-0.331 0.085-0.712 0.128-1.142 0.128v0c-0.65 0-1.364-0.159-2.143-0.479v0l0.292-0.791c0.439 0.162 0.798 0.277 1.077 0.344 0.277 0.068 0.55 0.102 0.818 0.102v0c1.038 0 1.558-0.33 1.558-0.99v0c0-0.145-0.051-0.272-0.155-0.382-0.101-0.11-0.237-0.2-0.407-0.271-0.171-0.07-0.363-0.142-0.578-0.217-0.214-0.075-0.433-0.144-0.656-0.207-0.223-0.064-0.443-0.149-0.658-0.253-0.214-0.103-0.407-0.217-0.578-0.343-0.169-0.125-0.305-0.288-0.408-0.488-0.103-0.2-0.154-0.426-0.154-0.677v0c0-0.153 0.025-0.309 0.076-0.468 0.049-0.16 0.14-0.328 0.274-0.504 0.132-0.178 0.299-0.333 0.5-0.466 0.2-0.134 0.468-0.245 0.802-0.331 0.333-0.087 0.71-0.131 1.132-0.131zM179.827 172.202l1.009-2.488h1.15l-1.009 2.488zM191.467 162.689h-1.761v7.153h1.319c0.192 0 0.35-0.003 0.476-0.008 0.125-0.003 0.295-0.016 0.51-0.036 0.216-0.023 0.402-0.055 0.556-0.097 0.155-0.042 0.331-0.104 0.528-0.186 0.199-0.08 0.375-0.178 0.528-0.292 0.153-0.115 0.307-0.261 0.46-0.439 0.152-0.179 0.285-0.382 0.4-0.607v0c0.282-0.54 0.423-1.198 0.423-1.973v0c0-0.535-0.078-1.018-0.235-1.45-0.155-0.432-0.361-0.783-0.617-1.053-0.258-0.27-0.532-0.483-0.823-0.641-0.293-0.159-0.598-0.265-0.917-0.319v0c-0.186-0.035-0.469-0.052-0.847-0.052zM188.621 161.733h2.807c0.587 0 1.121 0.058 1.602 0.175 0.481 0.117 0.883 0.281 1.207 0.494 0.326 0.213 0.605 0.453 0.839 0.721 0.235 0.268 0.417 0.567 0.546 0.896 0.131 0.329 0.226 0.653 0.285 0.973 0.059 0.319 0.089 0.651 0.089 0.995v0c0 0.395-0.03 0.776-0.089 1.142-0.059 0.366-0.163 0.738-0.311 1.116-0.146 0.38-0.333 0.72-0.559 1.019-0.228 0.3-0.524 0.57-0.886 0.811-0.361 0.24-0.771 0.418-1.231 0.533v0c-0.237 0.059-0.503 0.104-0.797 0.133-0.293 0.03-0.535 0.047-0.727 0.052-0.192 0.003-0.462 0.005-0.81 0.006v0h-1.965zM200.878 164.375v0c0.305 0 0.58 0.037 0.826 0.11 0.244 0.075 0.447 0.17 0.609 0.284 0.162 0.115 0.301 0.265 0.418 0.45 0.117 0.185 0.206 0.363 0.266 0.536 0.063 0.172 0.111 0.38 0.144 0.622 0.035 0.242 0.057 0.453 0.065 0.632 0.009 0.178 0.013 0.389 0.013 0.633v0 0.496h-4.333c0 0.23 0.052 0.458 0.157 0.685 0.105 0.228 0.251 0.437 0.439 0.627 0.19 0.188 0.439 0.342 0.748 0.463 0.308 0.118 0.65 0.178 1.024 0.177v0c0.443 0 0.921-0.077 1.435-0.23v0l0.185 0.716c-0.685 0.233-1.357 0.35-2.017 0.351v0c-0.463 0-0.875-0.062-1.234-0.186-0.359-0.124-0.648-0.284-0.867-0.481-0.22-0.199-0.399-0.436-0.539-0.713-0.141-0.275-0.238-0.551-0.29-0.826-0.054-0.274-0.081-0.564-0.081-0.87v0c0-0.472 0.057-0.904 0.173-1.297 0.115-0.39 0.27-0.719 0.465-0.985 0.195-0.265 0.424-0.489 0.687-0.671 0.261-0.183 0.536-0.316 0.823-0.4 0.286-0.082 0.58-0.123 0.884-0.123zM200.653 165.279v0c-0.375 0-0.697 0.104-0.967 0.311-0.27 0.206-0.466 0.462-0.588 0.768-0.124 0.307-0.186 0.636-0.185 0.988v0h3.292c0-1.378-0.517-2.067-1.552-2.067zM207.814 164.375v0c0.089 0 0.172 0.001 0.251 0.002 0.078 0.002 0.155 0.007 0.23 0.016 0.075 0.009 0.139 0.015 0.19 0.018 0.054 0.005 0.116 0.014 0.186 0.027 0.07 0.012 0.12 0.022 0.151 0.028 0.033 0.007 0.087 0.02 0.162 0.04 0.073 0.019 0.118 0.03 0.136 0.033 0.017 0.003 0.067 0.018 0.149 0.045 0.084 0.026 0.132 0.041 0.144 0.044v0l-0.266 0.797c-0.57-0.157-1.071-0.235-1.506-0.235v0c-0.251 0-0.474 0.025-0.669 0.076-0.193 0.052-0.341 0.114-0.444 0.186-0.105 0.073-0.19 0.158-0.256 0.253-0.066 0.094-0.109 0.178-0.128 0.251-0.019 0.071-0.029 0.142-0.029 0.212v0c0 0.174 0.091 0.329 0.272 0.465 0.181 0.136 0.407 0.247 0.677 0.332 0.27 0.085 0.562 0.186 0.875 0.303 0.315 0.117 0.608 0.24 0.878 0.368 0.27 0.131 0.496 0.313 0.677 0.547 0.181 0.233 0.272 0.504 0.272 0.81v0c0 0.174-0.023 0.343-0.068 0.507-0.045 0.164-0.131 0.335-0.256 0.515-0.125 0.178-0.287 0.332-0.484 0.462-0.199 0.129-0.463 0.236-0.794 0.322-0.333 0.085-0.713 0.128-1.142 0.128v0c-0.652 0-1.367-0.159-2.146-0.479v0l0.296-0.791c0.437 0.162 0.795 0.277 1.074 0.344 0.279 0.068 0.552 0.102 0.82 0.102v0c1.038 0 1.558-0.33 1.558-0.99v0c0-0.145-0.051-0.272-0.154-0.382-0.103-0.11-0.239-0.2-0.408-0.271-0.171-0.07-0.363-0.142-0.578-0.217-0.216-0.075-0.436-0.144-0.658-0.207-0.223-0.064-0.442-0.149-0.656-0.253-0.214-0.103-0.407-0.217-0.578-0.343-0.171-0.125-0.307-0.288-0.407-0.488-0.103-0.2-0.154-0.426-0.155-0.677v0c0-0.153 0.024-0.309 0.074-0.468 0.049-0.16 0.14-0.328 0.274-0.504 0.134-0.178 0.301-0.333 0.502-0.466 0.2-0.134 0.467-0.245 0.799-0.331 0.335-0.087 0.713-0.131 1.135-0.131zM214.392 164.375v0c0.305 0 0.58 0.037 0.825 0.11 0.244 0.075 0.447 0.17 0.609 0.284 0.162 0.115 0.301 0.265 0.418 0.45 0.117 0.185 0.206 0.363 0.267 0.536 0.063 0.172 0.111 0.38 0.144 0.622 0.035 0.242 0.057 0.453 0.065 0.632 0.009 0.178 0.013 0.389 0.013 0.633v0 0.496h-4.333c0 0.23 0.052 0.458 0.157 0.685 0.105 0.228 0.251 0.437 0.439 0.627 0.19 0.188 0.439 0.342 0.747 0.463 0.308 0.118 0.65 0.178 1.025 0.177v0c0.443 0 0.921-0.077 1.435-0.23v0l0.185 0.716c-0.685 0.233-1.357 0.35-2.017 0.351v0c-0.463 0-0.875-0.062-1.234-0.186-0.359-0.124-0.648-0.284-0.868-0.481-0.22-0.199-0.399-0.436-0.538-0.713-0.141-0.275-0.239-0.551-0.293-0.826-0.052-0.274-0.078-0.564-0.078-0.87v0c0-0.472 0.057-0.904 0.173-1.297 0.115-0.39 0.27-0.719 0.465-0.985 0.195-0.265 0.424-0.489 0.687-0.671 0.261-0.183 0.535-0.316 0.821-0.4 0.287-0.082 0.583-0.123 0.886-0.123zM214.167 165.279v0c-0.375 0-0.697 0.104-0.967 0.311-0.27 0.206-0.467 0.462-0.591 0.768-0.122 0.307-0.183 0.636-0.183 0.988v0h3.291c0-1.378-0.517-2.067-1.55-2.067zM218.709 170.799v-6.304h0.734l0.23 0.536c0.812-0.443 1.552-0.664 2.222-0.664v0c0.343 0 0.643 0.054 0.899 0.162 0.254 0.11 0.452 0.247 0.593 0.41 0.141 0.164 0.253 0.369 0.334 0.617 0.084 0.249 0.137 0.487 0.16 0.714 0.024 0.225 0.037 0.482 0.036 0.77v0 3.759h-1.048v-3.829c0-1.106-0.477-1.659-1.429-1.66v0c-0.493 0-1.054 0.164-1.683 0.492v0 4.997zM229.902 164.495h1.085l-2.214 6.304h-1.087l-2.206-6.304h1.147l1.634 5.263zM235.299 164.375v0c0.873 0 1.591 0.278 2.153 0.834 0.564 0.558 0.847 1.328 0.847 2.31v0c0 1.042-0.288 1.87-0.865 2.485-0.577 0.615-1.322 0.923-2.237 0.923v0c-0.871 0-1.584-0.288-2.138-0.865-0.552-0.577-0.828-1.358-0.829-2.345v0c0-1.017 0.281-1.829 0.845-2.435 0.564-0.605 1.306-0.907 2.224-0.907zM235.21 165.266v0c-0.523 0-0.98 0.202-1.372 0.606-0.392 0.404-0.588 0.959-0.588 1.665v0c0 0.702 0.192 1.294 0.575 1.775 0.383 0.481 0.879 0.721 1.487 0.721v0c0.561 0 1.029-0.213 1.403-0.638 0.375-0.425 0.562-0.98 0.562-1.665v0c0-0.392-0.061-0.747-0.183-1.066-0.12-0.319-0.28-0.578-0.478-0.779-0.197-0.2-0.416-0.354-0.659-0.46-0.244-0.106-0.493-0.159-0.747-0.159zM240.403 170.799v-9.641h1.048v9.641zM247.561 164.495h1.087l-2.216 6.304h-1.085l-2.206-6.304h1.148l1.633 5.263zM250.114 162.937v-1.204h1.239v1.204zM250.211 170.799v-6.304h1.045v6.304zM253.234 167.754v0c0-0.544 0.077-1.032 0.23-1.466 0.153-0.434 0.363-0.789 0.63-1.066 0.268-0.275 0.583-0.487 0.943-0.635 0.359-0.146 0.747-0.22 1.163-0.22v0c0.502 0 1.011 0.112 1.527 0.337v0-3.546h1.045v9.641h-0.727l-0.172-0.395c-0.592 0.348-1.209 0.523-1.85 0.523v0c-0.265 0-0.523-0.032-0.774-0.097-0.251-0.063-0.499-0.173-0.745-0.332-0.247-0.157-0.463-0.354-0.648-0.591-0.185-0.235-0.335-0.537-0.449-0.906-0.115-0.371-0.172-0.787-0.173-1.247zM256.368 170.064v0c0.463 0 0.916-0.118 1.359-0.355v0-4.213c-0.456-0.204-0.914-0.306-1.372-0.306v0c-0.197 0-0.387 0.021-0.57 0.063-0.183 0.044-0.369 0.12-0.559 0.23-0.192 0.112-0.357 0.254-0.497 0.428-0.138 0.174-0.251 0.405-0.34 0.693-0.089 0.287-0.133 0.616-0.133 0.985v0c0 0.383 0.046 0.725 0.139 1.025 0.094 0.3 0.213 0.538 0.358 0.716 0.145 0.179 0.314 0.327 0.509 0.441 0.197 0.115 0.384 0.193 0.562 0.233 0.179 0.04 0.361 0.06 0.544 0.06zM263.22 164.375v0c0.467 0 0.863 0.054 1.189 0.162 0.326 0.108 0.577 0.267 0.753 0.476 0.176 0.207 0.302 0.439 0.379 0.695 0.077 0.254 0.115 0.548 0.115 0.88v0 4.211h-0.74l-0.243-0.575c-0.514 0.469-1.105 0.703-1.772 0.703v0c-0.596 0-1.1-0.179-1.513-0.539-0.413-0.361-0.619-0.781-0.619-1.262v0c0-0.254 0.047-0.483 0.141-0.687 0.094-0.206 0.229-0.376 0.405-0.513 0.176-0.136 0.377-0.252 0.603-0.347 0.225-0.096 0.487-0.169 0.787-0.22 0.3-0.051 0.601-0.086 0.904-0.107 0.301-0.023 0.632-0.034 0.993-0.034v0-0.496c0-0.145-0.005-0.27-0.015-0.377-0.01-0.106-0.045-0.234-0.105-0.384-0.059-0.148-0.14-0.27-0.243-0.366-0.101-0.096-0.254-0.179-0.457-0.248-0.206-0.07-0.449-0.105-0.729-0.104v0c-0.434 0-0.995 0.095-1.683 0.284v0l-0.199-0.765c0.697-0.258 1.38-0.387 2.049-0.387zM264.602 169.458v-1.448h-0.386c-0.244 0-0.455 0.004-0.633 0.013-0.179 0.009-0.389 0.033-0.63 0.073-0.24 0.04-0.436 0.097-0.588 0.17-0.153 0.071-0.285 0.177-0.394 0.316-0.108 0.138-0.162 0.302-0.162 0.494v0c0 0.268 0.135 0.506 0.405 0.714 0.27 0.209 0.592 0.314 0.967 0.313v0c0.549 0 1.023-0.215 1.421-0.645zM270.569 164.375v0c0.089 0 0.173 0.001 0.253 0.002 0.078 0.002 0.155 0.007 0.23 0.016 0.073 0.009 0.137 0.015 0.191 0.018 0.052 0.005 0.114 0.014 0.186 0.027 0.07 0.012 0.12 0.022 0.151 0.028 0.031 0.007 0.085 0.02 0.16 0.04 0.075 0.019 0.121 0.03 0.138 0.033 0.016 0.003 0.065 0.018 0.149 0.045 0.084 0.026 0.132 0.041 0.144 0.044v0l-0.269 0.797c-0.57-0.157-1.071-0.235-1.506-0.235v0c-0.251 0-0.473 0.025-0.666 0.076-0.193 0.052-0.342 0.114-0.447 0.186-0.105 0.073-0.189 0.158-0.253 0.253-0.066 0.094-0.109 0.178-0.129 0.251-0.019 0.071-0.029 0.142-0.028 0.212v0c0 0.174 0.091 0.329 0.271 0.465 0.179 0.136 0.404 0.247 0.675 0.332 0.27 0.085 0.563 0.186 0.878 0.303 0.315 0.117 0.608 0.24 0.878 0.368 0.27 0.131 0.495 0.313 0.674 0.547 0.181 0.233 0.272 0.504 0.272 0.81v0c0 0.174-0.022 0.343-0.065 0.507-0.045 0.164-0.131 0.335-0.256 0.515-0.125 0.178-0.287 0.332-0.487 0.462-0.197 0.129-0.462 0.236-0.794 0.322-0.331 0.085-0.712 0.128-1.142 0.128v0c-0.65 0-1.364-0.159-2.143-0.479v0l0.293-0.791c0.439 0.162 0.798 0.277 1.076 0.344 0.279 0.068 0.552 0.102 0.821 0.102v0c1.037 0 1.555-0.33 1.555-0.99v0c0-0.145-0.051-0.272-0.152-0.382-0.103-0.11-0.24-0.2-0.41-0.271-0.169-0.07-0.362-0.142-0.578-0.217-0.214-0.075-0.433-0.144-0.655-0.207-0.223-0.064-0.442-0.149-0.656-0.253-0.216-0.103-0.409-0.217-0.578-0.343-0.171-0.125-0.308-0.288-0.41-0.488-0.101-0.2-0.152-0.426-0.152-0.677v0c0-0.153 0.024-0.309 0.073-0.468 0.049-0.16 0.14-0.328 0.275-0.504 0.134-0.178 0.301-0.333 0.499-0.466 0.2-0.134 0.468-0.245 0.802-0.331 0.333-0.087 0.71-0.131 1.132-0.131zM277.69 167.793v0c0-0.498 0.059-0.946 0.178-1.343 0.12-0.397 0.279-0.722 0.476-0.975 0.199-0.254 0.431-0.465 0.697-0.632 0.268-0.167 0.543-0.287 0.824-0.358 0.281-0.07 0.574-0.105 0.88-0.105v0c0.605 0 1.193 0.125 1.767 0.376v0l-0.254 0.766c-0.472-0.162-0.934-0.243-1.385-0.243v0c-0.221 0-0.429 0.02-0.624 0.06-0.197 0.042-0.392 0.116-0.586 0.222-0.193 0.106-0.359 0.243-0.496 0.411-0.138 0.169-0.249 0.389-0.335 0.661-0.085 0.272-0.128 0.585-0.128 0.938v0c0 0.387 0.044 0.727 0.134 1.022 0.091 0.296 0.208 0.536 0.352 0.719 0.145 0.183 0.317 0.332 0.518 0.446 0.202 0.115 0.407 0.195 0.614 0.241 0.206 0.044 0.428 0.065 0.666 0.065v0c0.399 0 0.799-0.07 1.2-0.209v0l0.256 0.721c-0.605 0.233-1.211 0.35-1.819 0.351v0c-0.281 0-0.55-0.028-0.807-0.084-0.258-0.056-0.519-0.157-0.784-0.303-0.267-0.146-0.497-0.333-0.69-0.559-0.193-0.225-0.351-0.525-0.473-0.902-0.12-0.376-0.18-0.805-0.181-1.286zM287.145 164.375v0c0.871 0 1.589 0.278 2.154 0.834 0.563 0.558 0.844 1.328 0.844 2.31v0c0 1.042-0.287 1.87-0.862 2.485-0.577 0.615-1.322 0.923-2.237 0.923v0c-0.873 0-1.585-0.288-2.138-0.865-0.552-0.577-0.828-1.358-0.829-2.345v0c0-1.017 0.281-1.829 0.844-2.435 0.564-0.605 1.306-0.907 2.224-0.907zM287.057 165.266v0c-0.524 0-0.982 0.202-1.372 0.606-0.392 0.404-0.588 0.959-0.588 1.665v0c0 0.702 0.192 1.294 0.575 1.775 0.383 0.481 0.879 0.721 1.487 0.721v0c0.561 0 1.029-0.213 1.403-0.638 0.375-0.425 0.562-0.98 0.562-1.665v0c0-0.392-0.061-0.747-0.183-1.066-0.12-0.319-0.28-0.578-0.478-0.779-0.197-0.2-0.417-0.354-0.662-0.46-0.242-0.106-0.49-0.159-0.744-0.159zM294.643 165.337v0c-0.366 0-0.857 0.162-1.474 0.486v0 4.976h-1.048v-6.304h0.735l0.222 0.523c0.761-0.429 1.421-0.643 1.978-0.643v0c0.643 0 1.147 0.233 1.513 0.7v0c0.833-0.463 1.579-0.695 2.24-0.695v0c0.319 0 0.599 0.044 0.841 0.131 0.242 0.087 0.439 0.206 0.591 0.358 0.152 0.15 0.275 0.339 0.371 0.567 0.094 0.228 0.159 0.469 0.196 0.721 0.037 0.253 0.055 0.538 0.055 0.857v0 3.785h-1.045v-3.855c0-0.077-0.003-0.147-0.008-0.212-0.003-0.066-0.014-0.158-0.031-0.274-0.017-0.118-0.043-0.223-0.076-0.314-0.035-0.091-0.085-0.19-0.152-0.298-0.066-0.106-0.145-0.194-0.238-0.264-0.094-0.07-0.213-0.128-0.358-0.175-0.145-0.047-0.307-0.071-0.486-0.07v0c-0.39 0-0.907 0.166-1.55 0.499v0c0.059 0.251 0.089 0.659 0.089 1.223v0 3.74h-1.045v-3.879c0-0.112-0.004-0.217-0.013-0.316-0.009-0.101-0.038-0.234-0.089-0.4-0.051-0.166-0.118-0.307-0.204-0.423-0.085-0.117-0.216-0.22-0.392-0.311-0.178-0.089-0.385-0.133-0.622-0.133zM307.459 170.799v-9.066h2.993c0.141 0 0.257 0.001 0.347 0.002 0.092 0.002 0.226 0.01 0.4 0.026 0.174 0.014 0.323 0.035 0.447 0.063 0.124 0.028 0.269 0.071 0.436 0.128 0.169 0.057 0.313 0.125 0.432 0.201 0.118 0.077 0.243 0.178 0.373 0.304 0.129 0.125 0.233 0.265 0.311 0.418 0.08 0.153 0.145 0.338 0.196 0.554 0.051 0.218 0.076 0.456 0.076 0.716v0c0 0.373-0.043 0.708-0.128 1.006-0.084 0.298-0.193 0.547-0.327 0.747-0.134 0.2-0.308 0.373-0.52 0.518-0.213 0.145-0.423 0.256-0.632 0.334-0.209 0.078-0.455 0.14-0.737 0.186-0.282 0.044-0.536 0.072-0.761 0.086-0.223 0.012-0.481 0.018-0.773 0.018v0c-0.289 0-0.639-0.015-1.048-0.044v0 3.803zM308.544 162.689v3.351c0.409 0.033 0.797 0.05 1.163 0.049v0c0.207 0 0.382-0.002 0.522-0.005 0.141-0.005 0.314-0.02 0.518-0.044 0.204-0.026 0.374-0.062 0.51-0.108 0.136-0.044 0.281-0.11 0.433-0.198 0.153-0.091 0.275-0.196 0.366-0.316 0.092-0.122 0.168-0.275 0.228-0.46 0.059-0.185 0.089-0.396 0.088-0.635v0c0-0.247-0.031-0.465-0.094-0.654-0.064-0.19-0.158-0.342-0.279-0.457-0.12-0.115-0.247-0.209-0.382-0.282-0.134-0.075-0.296-0.129-0.486-0.162-0.188-0.031-0.354-0.052-0.496-0.063-0.143-0.01-0.312-0.016-0.507-0.016v0zM317.387 164.375v0c0.469 0 0.866 0.054 1.192 0.162 0.324 0.108 0.575 0.267 0.753 0.476 0.176 0.207 0.302 0.439 0.379 0.695 0.077 0.254 0.115 0.548 0.115 0.88v0 4.211h-0.74l-0.243-0.575c-0.516 0.469-1.107 0.703-1.774 0.703v0c-0.596 0-1.099-0.179-1.511-0.539-0.413-0.361-0.619-0.781-0.619-1.262v0c0-0.254 0.046-0.483 0.138-0.687 0.094-0.206 0.229-0.376 0.405-0.513 0.178-0.136 0.379-0.252 0.604-0.347 0.226-0.096 0.49-0.169 0.789-0.22 0.3-0.051 0.6-0.086 0.902-0.107 0.301-0.023 0.633-0.034 0.996-0.034v0-0.496c0-0.145-0.005-0.27-0.016-0.377-0.01-0.106-0.045-0.234-0.105-0.384-0.061-0.148-0.142-0.27-0.243-0.366-0.103-0.096-0.256-0.179-0.46-0.248-0.204-0.07-0.446-0.105-0.726-0.104v0c-0.434 0-0.996 0.095-1.686 0.284v0l-0.196-0.765c0.697-0.258 1.379-0.387 2.047-0.387zM318.773 169.458v-1.448h-0.39c-0.242 0-0.453 0.004-0.632 0.013-0.178 0.009-0.387 0.033-0.627 0.073-0.24 0.04-0.437 0.097-0.591 0.17-0.153 0.071-0.284 0.177-0.392 0.316-0.108 0.138-0.162 0.302-0.162 0.494v0c0 0.268 0.135 0.506 0.405 0.714 0.27 0.209 0.592 0.314 0.967 0.313v0c0.549 0 1.023-0.215 1.422-0.645zM322.026 162.937v-1.204h1.239v1.204zM322.123 170.799v-6.304h1.045v6.304zM327.015 167.704l-2.284-3.209h1.213l1.779 2.501 1.717-2.501h1.116l-2.32 3.215 2.2 3.089h-1.213l-1.69-2.368-1.608 2.368h-1.116zM336.057 161.918l0.063-0.332 0.69 0.108-0.11 0.543c-0.084 0.408-0.2 0.707-0.35 0.899v0c-0.204 0.26-0.48 0.389-0.828 0.389v0c-0.188 0-0.37-0.039-0.546-0.117-0.176-0.08-0.329-0.176-0.46-0.288-0.129-0.113-0.251-0.226-0.366-0.339-0.115-0.112-0.229-0.206-0.343-0.285-0.113-0.08-0.219-0.12-0.316-0.12v0c-0.054 0-0.105 0.011-0.154 0.034-0.051 0.021-0.092 0.045-0.125 0.073-0.035 0.026-0.067 0.064-0.097 0.115-0.03 0.049-0.054 0.092-0.073 0.13-0.019 0.038-0.037 0.087-0.055 0.147-0.016 0.059-0.027 0.103-0.034 0.13-0.007 0.028-0.015 0.069-0.024 0.123v0l-0.01 0.079-0.066 0.318-0.687-0.096 0.107-0.541c0.017-0.091 0.028-0.146 0.032-0.167 0.005-0.021 0.024-0.09 0.057-0.207 0.035-0.117 0.067-0.203 0.097-0.259 0.03-0.056 0.078-0.133 0.144-0.232 0.066-0.101 0.135-0.176 0.206-0.225 0.073-0.049 0.166-0.094 0.277-0.136 0.113-0.044 0.236-0.065 0.369-0.065v0c0.186 0 0.368 0.04 0.543 0.12 0.178 0.078 0.331 0.174 0.46 0.287 0.131 0.112 0.254 0.224 0.369 0.338 0.113 0.113 0.226 0.209 0.339 0.287 0.113 0.078 0.219 0.118 0.317 0.118v0c0.056 0 0.108-0.01 0.156-0.032 0.049-0.021 0.09-0.045 0.123-0.073 0.035-0.028 0.067-0.066 0.097-0.115 0.03-0.049 0.054-0.092 0.073-0.131 0.019-0.038 0.037-0.087 0.055-0.146 0.017-0.061 0.029-0.105 0.034-0.133 0.007-0.026 0.015-0.067 0.023-0.123v0zM335.624 169.458v-1.448h-0.39c-0.195 0-0.368 0.003-0.52 0.011-0.152 0.005-0.328 0.019-0.53 0.041-0.202 0.021-0.375 0.056-0.52 0.105-0.145 0.049-0.284 0.111-0.419 0.185-0.134 0.073-0.236 0.172-0.305 0.296-0.07 0.124-0.105 0.267-0.105 0.428v0c0 0.268 0.134 0.506 0.403 0.714 0.267 0.209 0.587 0.314 0.961 0.313v0c0.549 0 1.024-0.215 1.425-0.645zM334.239 164.38v0c0.472 0 0.871 0.055 1.196 0.165 0.326 0.112 0.577 0.273 0.753 0.483 0.176 0.211 0.301 0.443 0.376 0.698 0.075 0.256 0.112 0.551 0.113 0.886v0 4.187h-0.742l-0.241-0.575c-0.516 0.469-1.107 0.703-1.774 0.703v0c-0.596 0-1.1-0.179-1.513-0.539-0.413-0.361-0.619-0.781-0.62-1.262v0c0-0.305 0.07-0.572 0.209-0.802 0.138-0.23 0.321-0.414 0.549-0.552 0.226-0.139 0.51-0.25 0.852-0.332 0.34-0.084 0.685-0.14 1.035-0.17 0.352-0.03 0.749-0.044 1.192-0.044v0-0.504c0-0.145-0.005-0.27-0.016-0.377-0.01-0.106-0.046-0.234-0.107-0.384-0.059-0.148-0.139-0.27-0.241-0.366-0.103-0.096-0.256-0.179-0.46-0.248-0.204-0.07-0.447-0.105-0.729-0.105v0c-0.434 0-0.995 0.095-1.683 0.285v0l-0.198-0.765c0.685-0.254 1.368-0.382 2.049-0.382zM341.723 164.375v0c0.871 0 1.589 0.278 2.154 0.834 0.563 0.558 0.844 1.328 0.844 2.31v0c0 1.042-0.288 1.87-0.865 2.485-0.575 0.615-1.32 0.923-2.235 0.923v0c-0.873 0-1.585-0.288-2.137-0.865-0.554-0.577-0.831-1.358-0.831-2.345v0c0-1.017 0.282-1.829 0.846-2.435 0.563-0.605 1.304-0.907 2.224-0.907zM341.634 165.266v0c-0.524 0-0.982 0.202-1.372 0.606-0.392 0.404-0.588 0.959-0.588 1.665v0c0 0.702 0.192 1.294 0.575 1.775 0.383 0.481 0.879 0.721 1.487 0.721v0c0.561 0 1.029-0.213 1.404-0.638 0.375-0.425 0.562-0.98 0.562-1.665v0c0-0.392-0.061-0.747-0.183-1.066-0.122-0.319-0.281-0.578-0.479-0.779-0.199-0.2-0.419-0.354-0.661-0.46-0.242-0.106-0.49-0.159-0.745-0.159z" fill="#6b7280" fill-rule="nonzero" stroke="none" stroke-width="1" stroke-linecap="butt" stroke-linejoin="miter" stroke-miterlimit="10" stroke-dasharray="" stroke-dashoffset="0" font-family="none" font-weight="none" font-size="none" text-anchor="none" style="mix-blend-mode: normal" data-fill-palette-color="secondary" id="text-1"></path></g></g><g transform="matrix(1,0,0,1,29.33176499999999,31.226668960186085)"><svg viewBox="0 0 316.416 33.76720207962786" height="33.76720207962786" width="316.416"><g><svg viewBox="0 0 316.416 33.76720207962786" height="33.76720207962786" width="316.416"><g><svg viewBox="0 0 316.416 33.76720207962786" height="33.76720207962786" width="316.416"><g id="textblocktransform"><svg viewBox="0 0 316.416 33.76720207962786" height="33.76720207962786" width="316.416" id="textblock"><g><svg viewBox="0 0 316.416 33.76720207962786" height="33.76720207962786" width="316.416"><g transform="matrix(1,0,0,1,0,0)"><svg width="316.416" viewBox="0.75 -38.25 365.42 39" height="33.76720207962786" data-palette-color="#6b7280"><path d="M19.75-33L19.75-33 19.25-33 19.25-2 24.25-2 24.25 0 6.75 0 6.75-2 11.75-2 11.75-33 11.25-33Q7.95-33 6.73-32.35 5.5-31.7 5.05-29.45L5.05-29.45 4.05-24.5 2.1-24.5 0.75-32.9Q0.75-33.9 1.2-34.38 1.65-34.85 2.18-34.93 2.7-35 3.8-35L3.8-35 27.2-35Q28.3-35 28.83-34.93 29.35-34.85 29.8-34.38 30.25-33.9 30.25-32.9L30.25-32.9 28.9-24.5 26.95-24.5 25.95-29.45Q25.5-31.7 24.28-32.35 23.05-33 19.75-33ZM38.72-30.68Q37.55-31.85 37.55-33.5 37.55-35.15 38.72-36.33 39.9-37.5 41.55-37.5 43.2-37.5 44.37-36.33 45.55-35.15 45.55-33.5 45.55-31.85 44.37-30.68 43.2-29.5 41.55-29.5 39.9-29.5 38.72-30.68ZM40.6-25.75L40.6-25.75Q45.3-25.75 45.3-21.7L45.3-21.7 45.3-5.55Q45.3-4.2 45.95-3.43 46.6-2.65 47.95-2.65 49.3-2.65 51.05-4.1L51.05-4.1 51.95-2.9Q47.95 0.75 43.95 0.75L43.95 0.75Q37.8 0.75 37.8-6.6L37.8-6.6 37.8-23.35Q35.05-22.65 33.6-20.9L33.6-20.9 32.25-22.45Q33.7-23.95 35.92-24.85 38.15-25.75 40.6-25.75ZM50.95-34.95Q52.4-36.45 54.62-37.35 56.85-38.25 59.02-38.25 61.2-38.25 62.6-37.38 64-36.5 64-35.2L64-35.2 64-5.55Q64-4.2 64.65-3.43 65.3-2.65 66.65-2.65 68-2.65 69.75-4.1L69.75-4.1 70.65-2.9Q66.65 0.75 62.65 0.75L62.65 0.75Q56.5 0.75 56.5-6.6L56.5-6.6 56.5-35.85Q53.75-35.15 52.3-33.4L52.3-33.4 50.95-34.95ZM78.39-20.9L78.39-20.9Q77.19-22.75 77.19-24.2 77.19-25.65 78.32-26.78 79.44-27.9 81.04-27.9 82.64-27.9 83.77-26.78 84.89-25.65 84.89-24.1 84.89-22.55 83.34-20.8L83.34-20.8Q87.44-17.8 89.64-14.93 91.84-12.05 91.84-8.28 91.84-4.5 88.99-1.88 86.14 0.75 80.89 0.75L80.89 0.75Q78.49 0.75 76.07-0.3 73.64-1.35 72.39-2.9L72.39-2.9 73.54-4.1Q75.74-2.35 78.29-2.35 80.84-2.35 82.47-3.73 84.09-5.1 84.09-8L84.09-8Q84.09-12.6 80.69-17.6L80.69-17.6 73.14-8.15 71.89-9.25Q75.69-15.4 78.39-20.9ZM100.27-3.08Q96.59-6.9 96.59-12.5 96.59-18.1 100.27-21.93 103.94-25.75 109.84-25.75 115.74-25.75 119.42-21.93 123.09-18.1 123.09-12.5 123.09-6.9 119.42-3.08 115.74 0.75 109.84 0.75 103.94 0.75 100.27-3.08ZM105.74-20.53Q104.34-17.4 104.34-12.5 104.34-7.6 105.74-4.48 107.14-1.35 109.89-1.35 112.64-1.35 114.04-4.48 115.44-7.6 115.44-12.5 115.44-17.4 114.04-20.53 112.64-23.65 109.89-23.65 107.14-23.65 105.74-20.53ZM132.54-25L132.54-25Q136.64-25 139.94-22.5L139.94-22.5Q141.84-24.3 143.84-25.03 145.84-25.75 148.96-25.75 152.09-25.75 154.06-23.78 156.04-21.8 156.04-18.4L156.04-18.4 156.04-5.55Q156.04-4.2 156.69-3.43 157.34-2.65 158.69-2.65 160.04-2.65 161.79-4.1L161.79-4.1 162.69-2.9Q158.69 0.75 154.69 0.75L154.69 0.75Q148.54 0.75 148.54-6.6L148.54-6.6 148.54-19.45Q148.54-21 147.59-21.85 146.64-22.7 144.96-22.7 143.29-22.7 141.66-21.35 140.04-20 140.04-17.85L140.04-17.85 140.04 0 132.54 0 132.54-23Q130.29-23 128.54-22.25L128.54-22.25 127.84-24.1Q129.99-25 132.54-25ZM182.43-33L179.08-33 179.08-35 190.13-35 199.23-5.05 207.83-35 219.18-35 219.18-33 215.78-33 217.58-2 220.58-2 220.58 0 207.18 0 207.18-2 210.03-2 208.48-26.75 200.78 0 193.23 0 185.08-26.7 183.68-2 186.58-2 186.58 0 177.68 0 177.68-2 180.68-2 182.43-33ZM244.43-25L251.93-25 251.93-5.55Q251.93-4.2 252.58-3.43 253.23-2.65 254.58-2.65 255.93-2.65 257.68-4.1L257.68-4.1 258.58-2.9Q254.58 0.75 250.58 0.75L250.58 0.75Q245.83 0.75 244.73-3.7L244.73-3.7Q242.13 0.75 237.08 0.75L237.08 0.75Q231.33 0.75 228.33-2.98 225.33-6.7 225.33-12.48 225.33-18.25 228.56-22 231.78-25.75 237.58-25.75L237.58-25.75Q242.03-25.75 244.43-22.2L244.43-22.2 244.43-25ZM234.48-20.1Q233.08-17.3 233.08-12.5 233.08-7.7 234.48-4.9 235.88-2.1 238.76-2.1 241.63-2.1 243.16-4.93 244.68-7.75 244.68-12.5 244.68-17.25 243.16-20.08 241.63-22.9 238.76-22.9 235.88-22.9 234.48-20.1ZM263.63-22.25L259.53-22.25 259.53-24.3 263.63-24.3 263.63-31.5 271.13-31.5 271.13-24.3 276.78-24.3 276.78-22.25 271.13-22.25 271.13-5.55Q271.13-4.2 271.78-3.43 272.43-2.65 273.78-2.65 275.13-2.65 276.88-4.1L276.88-4.1 277.78-2.9Q273.78 0.75 269.78 0.75L269.78 0.75Q263.63 0.75 263.63-6.6L263.63-6.6 263.63-22.25ZM292.48-11.55Q295.73-11.85 297.5-14.03 299.28-16.2 299.28-18.43 299.28-20.65 298.3-21.85 297.33-23.05 295.35-23.05 293.38-23.05 291.58-20.25 289.78-17.45 289.78-12.75 289.78-8.05 291.48-5.2 293.18-2.35 296.33-2.35L296.33-2.35Q301.13-2.35 304.48-6.1L304.48-6.1 305.88-5.2Q304.18-2.5 301.38-0.88 298.58 0.75 295.08 0.75L295.08 0.75Q289.13 0.75 285.58-3.18 282.03-7.1 282.03-12.65 282.03-18.2 285.8-21.98 289.58-25.75 296.28-25.75L296.28-25.75Q300.68-25.75 303.18-23.7 305.68-21.65 305.68-18.5 305.68-15.35 302.9-12.68 300.13-10 295.58-10L295.58-10Q294.03-10 292.58-10.35L292.58-10.35 292.48-11.55ZM322.32-22.7L322.32-22.7 322.32-5.55Q322.32-4 323.27-3.15 324.22-2.3 325.92-2.3 327.62-2.3 329.22-3.7 330.82-5.1 330.82-7.35L330.82-7.35 330.82-25 338.32-25 338.32-5.55Q338.32-4.2 338.97-3.43 339.62-2.65 340.97-2.65 342.32-2.65 344.07-4.1L344.07-4.1 344.97-2.9Q340.97 0.75 336.82 0.75 332.67 0.75 331.32-2.95L331.32-2.95Q329.37-0.9 327.3-0.08 325.22 0.75 322 0.75 318.77 0.75 316.8-1.23 314.82-3.2 314.82-6.6L314.82-6.6 314.82-23.35Q312.07-22.65 310.62-20.9L310.62-20.9 309.27-22.45Q310.72-23.95 312.95-24.85 315.17-25.75 317.35-25.75 319.52-25.75 320.92-24.88 322.32-24 322.32-22.7ZM352.72-20.9L352.72-20.9Q351.52-22.75 351.52-24.2 351.52-25.65 352.65-26.78 353.77-27.9 355.37-27.9 356.97-27.9 358.1-26.78 359.22-25.65 359.22-24.1 359.22-22.55 357.67-20.8L357.67-20.8Q361.77-17.8 363.97-14.93 366.17-12.05 366.17-8.28 366.17-4.5 363.32-1.88 360.47 0.75 355.22 0.75L355.22 0.75Q352.82 0.75 350.4-0.3 347.97-1.35 346.72-2.9L346.72-2.9 347.87-4.1Q350.07-2.35 352.62-2.35 355.17-2.35 356.8-3.73 358.42-5.1 358.42-8L358.42-8Q358.42-12.6 355.02-17.6L355.02-17.6 347.47-8.15 346.22-9.25Q350.02-15.4 352.72-20.9Z" opacity="1" transform="matrix(1,0,0,1,0,0)" fill="#6b7280" class="wordmark-text-0" data-fill-palette-color="primary" id="text-0"></path></svg></g></svg></g></svg></g></svg></g><g></g></svg></g></svg></g></svg></g><defs></defs></svg><rect width="375.07953" height="96.22054000000003" fill="none" stroke="none" visibility="hidden"></rect></g></svg></g></svg>